<svg width="180" height="167" viewBox="0 0 180 167" fill="none" xmlns="http://www.w3.org/2000/svg">
<rect width="180" height="167" rx="25" fill="#E7E7E7"/>
<path d="M99.6184 123.4C98.4917 123.4 97.2784 123.27 95.9784 123.01C94.6784 122.75 93.5517 122.23 92.5984 121.45C91.6451 120.67 91.1684 119.543 91.1684 118.07C91.1684 117.29 91.2984 116.553 91.5584 115.86C91.9051 115.08 92.2517 114.387 92.5984 113.78C93.1184 112.827 93.7684 111.917 94.5484 111.05C95.4151 110.097 96.2817 109.273 97.1484 108.58C101.135 105.2 105.772 102.513 111.058 100.52C116.345 98.4401 121.502 96.8801 126.528 95.8401C129.822 95.1468 133.158 94.6268 136.538 94.2801C140.005 93.9335 143.385 93.7601 146.678 93.7601C148.932 90.9868 151.012 87.8668 152.918 84.4001C154.912 80.9335 156.515 77.3368 157.728 73.6101C158.942 69.7968 159.548 66.0701 159.548 62.4301C159.548 56.1901 157.685 51.5535 153.958 48.5201C150.232 45.4868 145.378 43.9701 139.398 43.9701C137.665 43.9701 135.932 44.1001 134.198 44.3601C129.258 44.8801 123.928 45.8335 118.208 47.2201C112.575 48.5201 107.158 50.3401 101.958 52.6801C96.7584 55.0201 92.3384 58.0968 88.6984 61.9101C87.5717 63.0368 86.5317 64.3368 85.5784 65.8101C84.7117 67.2835 84.2784 68.8435 84.2784 70.4901C84.2784 72.7435 85.0584 74.6068 86.6184 76.0801C88.1784 77.4668 90.1284 78.5501 92.4684 79.3301C94.8951 80.1101 97.3217 80.6301 99.7484 80.8901C102.175 81.1501 104.212 81.2801 105.858 81.2801C110.278 81.2801 114.958 80.7168 119.898 79.5901C124.925 78.3768 129.388 76.6868 133.288 74.5201C134.155 74.0001 135.065 73.3935 136.018 72.7001C137.058 72.0068 137.882 71.2701 138.488 70.4901C139.008 69.7968 139.528 69.0168 140.048 68.1501C140.568 67.2835 140.828 66.4168 140.828 65.5501C140.828 64.0768 140.048 62.9935 138.488 62.3001C136.928 61.5201 135.195 61.0435 133.288 60.8701C131.468 60.6101 130.038 60.4801 128.998 60.4801C125.532 60.4801 122.022 60.8701 118.468 61.6501C115.002 62.4301 111.665 63.4268 108.458 64.6401C107.852 64.8135 106.898 65.2035 105.598 65.8101C104.298 66.4168 103.085 67.1535 101.958 68.0201C100.832 68.8001 100.268 69.6235 100.268 70.4901C100.268 71.0968 100.528 71.5301 101.048 71.7901C101.655 72.0501 101.958 72.3968 101.958 72.8301C101.958 73.3501 101.698 73.6101 101.178 73.6101C100.485 73.6101 99.8784 73.2635 99.3584 72.5701C98.8384 71.7901 98.5784 71.0968 98.5784 70.4901V69.8401C99.0984 67.7601 100.485 65.9835 102.738 64.5101C104.992 63.0368 107.635 61.8668 110.668 61.0001C113.702 60.1335 116.648 59.5268 119.508 59.1801C122.455 58.7468 124.882 58.5301 126.788 58.5301C128.002 58.5301 129.518 58.6168 131.338 58.7901C133.245 58.9635 135.108 59.3101 136.928 59.8301C138.748 60.3501 140.265 61.1301 141.478 62.1701C142.778 63.1235 143.428 64.4668 143.428 66.2001C143.428 67.3268 143.125 68.3668 142.518 69.3201C141.998 70.2735 141.392 71.1835 140.698 72.0501C139.138 73.9568 136.755 75.6468 133.548 77.1201C130.428 78.5935 127.178 79.8501 123.798 80.8901C120.418 81.8435 117.515 82.5368 115.088 82.9701C111.102 83.7501 107.028 84.1401 102.868 84.1401C100.962 84.1401 98.7517 84.0101 96.2384 83.7501C93.7251 83.4901 91.2984 82.9701 88.9584 82.1901C86.6184 81.3235 84.6684 80.1101 83.1084 78.5501C81.6351 76.9035 80.8984 74.7801 80.8984 72.1801C80.8984 69.9268 81.4617 67.8035 82.5884 65.8101C83.8017 63.7301 85.1451 61.9101 86.6184 60.3501C89.3917 57.4901 92.9017 54.9335 97.1484 52.6801C101.395 50.4268 105.945 48.5201 110.798 46.9601C115.738 45.3135 120.592 44.0568 125.358 43.1901C130.212 42.3235 134.588 41.8901 138.488 41.8901C142.822 41.8901 146.982 42.4535 150.968 43.5801C154.955 44.7068 158.205 46.7001 160.718 49.5601C163.232 52.3335 164.488 56.2768 164.488 61.3901C164.488 65.1168 163.838 68.9735 162.538 72.9601C161.238 76.8601 159.548 80.6301 157.468 84.2701C155.475 87.8235 153.308 91.0735 150.968 94.0201C151.835 94.0201 152.918 94.1501 154.218 94.4101C155.605 94.6701 156.862 95.1035 157.988 95.7101C159.115 96.2301 159.678 97.0535 159.678 98.1801C159.678 99.3068 159.202 99.8701 158.248 99.8701C157.728 99.8701 157.468 99.6968 157.468 99.3501V98.7001C157.468 97.9201 156.905 97.3568 155.778 97.0101C154.652 96.6635 153.395 96.4468 152.008 96.3601C150.708 96.1868 149.798 96.1001 149.278 96.1001C144.078 102.167 137.882 107.583 130.688 112.35C123.582 117.03 116.128 120.323 108.328 122.23C106.942 122.577 105.512 122.837 104.038 123.01C102.565 123.27 101.092 123.4 99.6184 123.4ZM100.918 119.89C102.218 119.89 103.518 119.803 104.818 119.63C106.205 119.457 107.548 119.24 108.848 118.98C115.868 117.247 122.455 114.343 128.608 110.27C134.762 106.197 140.178 101.43 144.858 95.9701C141.912 95.9701 138.922 96.1001 135.888 96.3601C132.855 96.5335 129.865 96.9235 126.918 97.5301C122.152 98.4835 117.342 99.9568 112.488 101.95C107.722 103.943 103.562 106.717 100.008 110.27C99.4017 110.877 98.7517 111.527 98.0584 112.22C97.4517 112.913 96.9317 113.607 96.4984 114.3C96.2384 114.733 95.9784 115.21 95.7184 115.73C95.4584 116.25 95.3284 116.77 95.3284 117.29C95.3284 118.417 96.0217 119.11 97.4084 119.37C98.8817 119.717 100.052 119.89 100.918 119.89Z" fill="black"/>
<path d="M23.0866 123.235V50.5078H36.2613V83.924H37.1491L65.5227 50.5078H81.6093L53.4843 83.1428L81.8579 123.235H66.0198L44.3224 92.0561L36.2613 101.573V123.235H23.0866Z" fill="black"/>
</svg>
