<svg width="37" height="26" viewBox="0 0 37 26" fill="none" xmlns="http://www.w3.org/2000/svg">
<path d="M18.8862 1L10.8378 8.42272L13.6045 19.5568M18.8862 1L26.6831 8.42272C25.4062 12.7708 24.6903 15.2087 23.4134 19.5568M18.8862 1C18.8862 1 27.148 2.03614 30.7073 5.45351C33.3977 8.03671 34.7314 11.8867 34.7314 11.8867M13.6045 19.5568H23.4134M13.6045 19.5568C13.6045 19.5568 12.2142 19.541 11.5924 20.0515C10.805 20.6979 10.8378 21.7003 10.8378 22.5259C10.8378 23.3515 10.8919 24.0506 11.5924 24.5053C12.2482 24.931 12.8187 25 13.6045 25C17.4351 25 23.4134 25 23.4134 25L24.671 24.5053C24.671 24.5053 25.8587 23.4348 25.9285 22.5259C25.9918 21.7027 25.8908 19.9279 24.671 19.5568C24.2018 19.414 23.4134 19.5568 23.4134 19.5568M18.3832 1C18.3832 1 9.03546 2.35687 6.0591 6.69075C4.23129 9.35224 3.7955 14.6083 3.7955 14.6083M3.7955 14.6083C3.7955 14.6083 2.6432 14.293 2.03492 14.6083C1.33432 14.9714 0.877945 15.5755 1.02887 16.3403C1.17508 17.0811 1.77801 17.4742 2.53794 17.5774C3.27894 17.6781 3.90598 17.4615 4.29852 16.8351C4.77373 16.0768 3.7955 14.6083 3.7955 14.6083ZM34.7314 11.8867C34.7314 11.8867 32.3624 11.4703 31.4618 12.3815C30.8122 13.0387 30.3873 13.7474 30.7073 14.6083C30.9974 15.389 31.6581 15.6082 32.4678 15.8454C33.4139 16.1226 34.1789 16.1613 34.983 15.598C35.5599 15.1938 35.8849 14.8027 35.989 14.1135C36.1376 13.1294 34.7314 11.8867 34.7314 11.8867Z" stroke="black"/>
</svg>
